<svg xmlns="http://www.w3.org/2000/svg" viewBox="0 0 48 27.04"><defs><style>.cls-1{fill:#d2a814;}</style></defs><title>andr2</title><g id="Calque_2" data-name="Calque 2"><g id="Calque_1-2" data-name="Calque 1"><path class="cls-1" d="M35.05,20.16a2,2,0,1,1,2-2,2,2,0,0,1-2,2M13,20.16a2,2,0,1,1,2-2,2,2,0,0,1-2,2m22.8-12,4-6.91a.84.84,0,0,0-.3-1.14.84.84,0,0,0-1.14.3l-4,7a25.1,25.1,0,0,0-20.54,0L9.68.41a.83.83,0,0,0-1.44.84l4,6.91A23.61,23.61,0,0,0,0,27H48A23.61,23.61,0,0,0,35.76,8.12"/></g></g></svg>