<svg xmlns="http://www.w3.org/2000/svg" viewBox="0 0 34.52 42.32"><defs><style>.cls-1{fill:#f7f9fc;}</style></defs><title>apple1</title><g id="Calque_2" data-name="Calque 2"><g id="Calque_1-2" data-name="Calque 1"><path class="cls-1" d="M19,3.69A9.07,9.07,0,0,1,25.69,0,9,9,0,0,1,23.5,6.77c-2.95,3.55-6.31,3-6.31,3S16.56,7,19,3.69Zm-1.49,8.47c1.43,0,4.09-2,7.55-2a9.47,9.47,0,0,1,8.3,4.24,9.19,9.19,0,0,0-4.58,8A9.43,9.43,0,0,0,34.52,31s-4,11.23-9.38,11.23c-2.47,0-4.4-1.67-7-1.67s-5.29,1.73-7,1.73C6.22,42.32,0,31.67,0,23.1S5.26,10.26,10.2,10.26c3.21,0,5.7,1.85,7.37,1.85Z"/></g></g></svg>