<svg xmlns="http://www.w3.org/2000/svg" xmlns:xlink="http://www.w3.org/1999/xlink" viewBox="0 0 42.04 42.03"><defs><style>.cls-1{fill:url(#Dégradé_sans_nom_3);}.cls-2{fill:url(#Dégradé_sans_nom_2);}</style><radialGradient id="Dégradé_sans_nom_3" cx="5.55" cy="127.46" r="54.83" gradientTransform="translate(0.05 -85.26)" gradientUnits="userSpaceOnUse"><stop offset="0.09" stop-color="#fa8f21"/><stop offset="0.78" stop-color="#d82d7e"/></radialGradient><radialGradient id="Dégradé_sans_nom_2" cx="25.45" cy="129.34" r="43.21" gradientTransform="translate(0.05 -85.26)" gradientUnits="userSpaceOnUse"><stop offset="0.64" stop-color="#8c3aaa" stop-opacity="0"/><stop offset="1" stop-color="#8c3aaa"/></radialGradient></defs><title>insta1</title><g id="Calque_2" data-name="Calque 2"><g id="Calque_1-2" data-name="Calque 1"><path class="cls-1" d="M14,21a7,7,0,1,1,7,7h0a7,7,0,0,1-7-7M10.2,21A10.79,10.79,0,1,0,21,10.22h0A10.79,10.79,0,0,0,10.24,21M29.71,9.79a2.52,2.52,0,1,0,2.53-2.52h0a2.54,2.54,0,0,0-2.52,2.52M12.54,38.1a11.82,11.82,0,0,1-3.9-.73,7,7,0,0,1-4-4,12.07,12.07,0,0,1-.72-3.9c-.1-2.22-.12-2.88-.12-8.49s0-6.27.12-8.48a12.17,12.17,0,0,1,.73-3.87A6.6,6.6,0,0,1,6.23,6.21,6.48,6.48,0,0,1,8.64,4.63a11.56,11.56,0,0,1,3.9-.72c2.21-.1,2.88-.13,8.48-.13s6.28,0,8.49.13a11.56,11.56,0,0,1,3.9.72A6.7,6.7,0,0,1,35.83,6.2,6.53,6.53,0,0,1,37.4,8.63a11.32,11.32,0,0,1,.72,3.9c.1,2.21.12,2.87.12,8.48s0,6.27-.12,8.49a11.81,11.81,0,0,1-.72,3.9,6.92,6.92,0,0,1-4,4,11.82,11.82,0,0,1-3.9.73c-2.21.1-2.88.12-8.49.12s-6.27,0-8.48-.12m-.16-38a15.62,15.62,0,0,0-5.1,1,10.27,10.27,0,0,0-3.72,2.4A9.91,9.91,0,0,0,1.13,7.25a15.3,15.3,0,0,0-1,5.09C0,14.58,0,15.34,0,21s0,6.42.13,8.66a15.36,15.36,0,0,0,1,5.1,10.19,10.19,0,0,0,2.42,3.72A10.46,10.46,0,0,0,7.27,40.9a15.36,15.36,0,0,0,5.1,1c2.24.11,3,.13,8.65.13s6.42,0,8.66-.13a15.36,15.36,0,0,0,5.1-1,10.46,10.46,0,0,0,3.72-2.42,10.32,10.32,0,0,0,2.42-3.72,15.36,15.36,0,0,0,1-5.1c.1-2.24.12-3,.12-8.66s0-6.42-.12-8.66a15.3,15.3,0,0,0-1-5.09A10.78,10.78,0,0,0,34.78,1.1a15.62,15.62,0,0,0-5.1-1C27.45,0,26.73,0,21,0s-6.38,0-8.62.13"/><path class="cls-2" d="M14,21a7,7,0,1,1,7,7h0a7,7,0,0,1-7-7M10.2,21A10.79,10.79,0,1,0,21,10.22h0A10.79,10.79,0,0,0,10.24,21M29.71,9.79a2.52,2.52,0,1,0,2.53-2.52h0a2.54,2.54,0,0,0-2.52,2.52M12.54,38.1a11.82,11.82,0,0,1-3.9-.73,7,7,0,0,1-4-4,12.07,12.07,0,0,1-.72-3.9c-.1-2.22-.12-2.88-.12-8.49s0-6.27.12-8.48a12.17,12.17,0,0,1,.73-3.87A6.6,6.6,0,0,1,6.23,6.21,6.48,6.48,0,0,1,8.64,4.63a11.56,11.56,0,0,1,3.9-.72c2.21-.1,2.88-.13,8.48-.13s6.28,0,8.49.13a11.56,11.56,0,0,1,3.9.72A6.7,6.7,0,0,1,35.83,6.2,6.53,6.53,0,0,1,37.4,8.63a11.32,11.32,0,0,1,.72,3.9c.1,2.21.12,2.87.12,8.48s0,6.27-.12,8.49a11.81,11.81,0,0,1-.72,3.9,6.92,6.92,0,0,1-4,4,11.82,11.82,0,0,1-3.9.73c-2.21.1-2.88.12-8.49.12s-6.27,0-8.48-.12m-.16-38a15.62,15.62,0,0,0-5.1,1,10.27,10.27,0,0,0-3.72,2.4A9.91,9.91,0,0,0,1.13,7.25a15.3,15.3,0,0,0-1,5.09C0,14.58,0,15.34,0,21s0,6.42.13,8.66a15.36,15.36,0,0,0,1,5.1,10.19,10.19,0,0,0,2.42,3.72A10.46,10.46,0,0,0,7.27,40.9a15.36,15.36,0,0,0,5.1,1c2.24.11,3,.13,8.65.13s6.42,0,8.66-.13a15.36,15.36,0,0,0,5.1-1,10.46,10.46,0,0,0,3.72-2.42,10.32,10.32,0,0,0,2.42-3.72,15.36,15.36,0,0,0,1-5.1c.1-2.24.12-3,.12-8.66s0-6.42-.12-8.66a15.3,15.3,0,0,0-1-5.09A10.78,10.78,0,0,0,34.78,1.1a15.62,15.62,0,0,0-5.1-1C27.45,0,26.73,0,21,0s-6.38,0-8.62.13"/></g></g></svg>