<svg xmlns="http://www.w3.org/2000/svg" viewBox="0 0 51.66 41.92"><defs><style>.cls-1{fill:#d2a814;}</style></defs><title>tweet2</title><g id="Calque_2" data-name="Calque 2"><g id="Calque_1-2" data-name="Calque 1"><path class="cls-1" d="M16.22,41.92c19.49,0,30.15-16.16,30.15-30.17V10.38a21.41,21.41,0,0,0,5.29-5.49,20.72,20.72,0,0,1-6.08,1.66A10.66,10.66,0,0,0,50.22.7a21.47,21.47,0,0,1-6.74,2.57,10.6,10.6,0,0,0-18.26,7.28A10.88,10.88,0,0,0,25.49,13,30,30,0,0,1,3.61,1.86,10.61,10.61,0,0,0,6.89,16a10.39,10.39,0,0,1-4.8-1.33v.14a10.6,10.6,0,0,0,8.5,10.39,10.16,10.16,0,0,1-2.8.37,9.61,9.61,0,0,1-2-.19,10.59,10.59,0,0,0,9.9,7.37A21.34,21.34,0,0,1,0,37.16a30,30,0,0,0,16.22,4.76"/></g></g></svg>